<mxfile host="app.diagrams.net" agent="Mozilla/5.0 (Windows NT 10.0; Win64; x64) AppleWebKit/537.36 (KHTML, like Gecko) Chrome/126.0.0.0 Safari/537.36 Edg/126.0.0.0" version="24.7.12">
  <diagram name="Page-1" id="c9db0220-8083-56f3-ca83-edcdcd058819">
    <mxGraphModel dx="1386" dy="793" grid="0" gridSize="10" guides="1" tooltips="1" connect="1" arrows="1" fold="1" page="1" pageScale="1.5" pageWidth="826" pageHeight="1169" background="none" math="0" shadow="0">
      <root>
        <mxCell id="0" style=";html=1;" />
        <mxCell id="1" style=";html=1;" parent="0" />
        <mxCell id="1zgJs77Ob8flzv7CBeoi-1" value="" style="html=1;shadow=0;dashed=0;fillColor=#F8F9FA;strokeColor=none;fontSize=16;fontColor=#181819;align=left;spacing=2;spacingLeft=55;" vertex="1" parent="1">
          <mxGeometry x="180" y="130" width="800" height="60" as="geometry" />
        </mxCell>
        <mxCell id="1zgJs77Ob8flzv7CBeoi-26" value="Logout" style="text;html=1;align=center;verticalAlign=middle;whiteSpace=wrap;rounded=0;" vertex="1" parent="1">
          <mxGeometry x="872" y="145" width="60" height="30" as="geometry" />
        </mxCell>
        <mxCell id="1zgJs77Ob8flzv7CBeoi-27" value="" style="html=1;shadow=0;dashed=0;shape=mxgraph.bootstrap.radioButton2;labelPosition=right;verticalLabelPosition=middle;align=left;verticalAlign=middle;gradientColor=#DEDEDE;fillColor=#EDEDED;checked=0;spacing=5;checkedFill=#0085FC;checkedStroke=#ffffff;sketch=0;" vertex="1" parent="1">
          <mxGeometry x="932" y="140" width="40" height="40" as="geometry" />
        </mxCell>
        <mxCell id="1zgJs77Ob8flzv7CBeoi-28" value="" style="html=1;shadow=0;dashed=0;shape=mxgraph.bootstrap.rrect;rSize=5;strokeColor=#DFDFDF;html=1;whiteSpace=wrap;fillColor=#ffffff;fontColor=#000000;verticalAlign=top;align=left;spacing=20;fontSize=14;" vertex="1" parent="1">
          <mxGeometry x="404" y="240" width="250" height="257" as="geometry" />
        </mxCell>
        <mxCell id="1zgJs77Ob8flzv7CBeoi-31" value="" style="html=1;shadow=0;dashed=0;shape=mxgraph.bootstrap.rrect;rSize=5;strokeColor=#DFDFDF;html=1;whiteSpace=wrap;fillColor=#ffffff;fontColor=#000000;verticalAlign=top;align=left;spacing=20;fontSize=14;" vertex="1" parent="1">
          <mxGeometry x="682" y="240" width="250" height="257" as="geometry" />
        </mxCell>
        <mxCell id="1zgJs77Ob8flzv7CBeoi-37" value="" style="html=1;shadow=0;dashed=0;fillColor=#F8F9FA;strokeColor=none;fontSize=16;fontColor=#181819;align=left;spacing=2;spacingLeft=55;" vertex="1" parent="1">
          <mxGeometry x="180" y="540" width="800" height="60" as="geometry" />
        </mxCell>
        <mxCell id="1zgJs77Ob8flzv7CBeoi-43" value="&lt;font style=&quot;font-size: 18px;&quot;&gt;&lt;b&gt;Mein Account&lt;/b&gt;&lt;/font&gt;" style="text;html=1;align=left;verticalAlign=middle;whiteSpace=wrap;rounded=0;" vertex="1" parent="1">
          <mxGeometry x="404" y="200" width="221" height="30" as="geometry" />
        </mxCell>
        <mxCell id="1zgJs77Ob8flzv7CBeoi-44" value="&lt;b&gt;Kontaktinformationen&lt;/b&gt;" style="text;html=1;align=left;verticalAlign=middle;whiteSpace=wrap;rounded=0;" vertex="1" parent="1">
          <mxGeometry x="414" y="250" width="225" height="30" as="geometry" />
        </mxCell>
        <mxCell id="1zgJs77Ob8flzv7CBeoi-45" value="Vorname" style="text;html=1;align=left;verticalAlign=middle;whiteSpace=wrap;rounded=0;" vertex="1" parent="1">
          <mxGeometry x="414" y="283" width="60" height="30" as="geometry" />
        </mxCell>
        <mxCell id="1zgJs77Ob8flzv7CBeoi-52" value="" style="rounded=0;whiteSpace=wrap;html=1;" vertex="1" parent="1">
          <mxGeometry x="414" y="315" width="141" height="22" as="geometry" />
        </mxCell>
        <mxCell id="1zgJs77Ob8flzv7CBeoi-53" value="Nachname" style="text;html=1;align=left;verticalAlign=middle;whiteSpace=wrap;rounded=0;" vertex="1" parent="1">
          <mxGeometry x="414" y="346" width="60" height="30" as="geometry" />
        </mxCell>
        <mxCell id="1zgJs77Ob8flzv7CBeoi-54" value="" style="rounded=0;whiteSpace=wrap;html=1;" vertex="1" parent="1">
          <mxGeometry x="414" y="378" width="141" height="22" as="geometry" />
        </mxCell>
        <mxCell id="1zgJs77Ob8flzv7CBeoi-55" value="E-Mail" style="text;html=1;align=left;verticalAlign=middle;whiteSpace=wrap;rounded=0;" vertex="1" parent="1">
          <mxGeometry x="414" y="413" width="60" height="30" as="geometry" />
        </mxCell>
        <mxCell id="1zgJs77Ob8flzv7CBeoi-56" value="" style="rounded=0;whiteSpace=wrap;html=1;" vertex="1" parent="1">
          <mxGeometry x="414" y="445" width="141" height="22" as="geometry" />
        </mxCell>
        <mxCell id="1zgJs77Ob8flzv7CBeoi-57" value="&lt;b&gt;Adresse&lt;/b&gt;" style="text;html=1;align=left;verticalAlign=middle;whiteSpace=wrap;rounded=0;" vertex="1" parent="1">
          <mxGeometry x="695" y="250" width="60" height="30" as="geometry" />
        </mxCell>
        <mxCell id="1zgJs77Ob8flzv7CBeoi-58" value="StraÃŸe" style="text;html=1;align=left;verticalAlign=middle;whiteSpace=wrap;rounded=0;" vertex="1" parent="1">
          <mxGeometry x="695" y="280" width="60" height="30" as="geometry" />
        </mxCell>
        <mxCell id="1zgJs77Ob8flzv7CBeoi-59" value="" style="rounded=0;whiteSpace=wrap;html=1;" vertex="1" parent="1">
          <mxGeometry x="695" y="312" width="135" height="22" as="geometry" />
        </mxCell>
        <mxCell id="1zgJs77Ob8flzv7CBeoi-60" value="PLZ" style="text;html=1;align=left;verticalAlign=middle;whiteSpace=wrap;rounded=0;" vertex="1" parent="1">
          <mxGeometry x="695" y="343" width="60" height="30" as="geometry" />
        </mxCell>
        <mxCell id="1zgJs77Ob8flzv7CBeoi-61" value="" style="rounded=0;whiteSpace=wrap;html=1;" vertex="1" parent="1">
          <mxGeometry x="695" y="375" width="65" height="22" as="geometry" />
        </mxCell>
        <mxCell id="1zgJs77Ob8flzv7CBeoi-62" value="" style="rounded=0;whiteSpace=wrap;html=1;" vertex="1" parent="1">
          <mxGeometry x="841" y="312" width="43" height="22" as="geometry" />
        </mxCell>
        <mxCell id="1zgJs77Ob8flzv7CBeoi-63" value="Nr." style="text;html=1;align=left;verticalAlign=middle;whiteSpace=wrap;rounded=0;" vertex="1" parent="1">
          <mxGeometry x="821" y="280" width="60" height="30" as="geometry" />
        </mxCell>
        <mxCell id="1zgJs77Ob8flzv7CBeoi-64" value="" style="rounded=0;whiteSpace=wrap;html=1;" vertex="1" parent="1">
          <mxGeometry x="772" y="375" width="112" height="22" as="geometry" />
        </mxCell>
        <mxCell id="1zgJs77Ob8flzv7CBeoi-65" value="Ort" style="text;html=1;align=left;verticalAlign=middle;whiteSpace=wrap;rounded=0;" vertex="1" parent="1">
          <mxGeometry x="772" y="343" width="60" height="30" as="geometry" />
        </mxCell>
        <mxCell id="1zgJs77Ob8flzv7CBeoi-67" value="" style="html=1;shadow=0;dashed=0;fillColor=#F8F9FA;strokeColor=none;fontSize=16;fontColor=#181819;align=left;spacing=2;spacingLeft=55;" vertex="1" parent="1">
          <mxGeometry x="180" y="190" width="198" height="351" as="geometry" />
        </mxCell>
        <mxCell id="1zgJs77Ob8flzv7CBeoi-68" value="" style="html=1;shadow=0;dashed=0;fillColor=#F8F9FA;strokeColor=none;fontSize=16;fontColor=#181819;align=left;spacing=2;spacingLeft=55;" vertex="1" parent="1">
          <mxGeometry x="954" y="185.5" width="26" height="354.5" as="geometry" />
        </mxCell>
        <mxCell id="1zgJs77Ob8flzv7CBeoi-69" value="" style="html=1;shadow=0;dashed=0;shape=mxgraph.bootstrap.radioButton2;labelPosition=right;verticalLabelPosition=middle;align=left;verticalAlign=middle;gradientColor=#DEDEDE;fillColor=#EDEDED;checked=0;spacing=5;checkedFill=#0085FC;checkedStroke=#ffffff;sketch=0;" vertex="1" parent="1">
          <mxGeometry x="192" y="140" width="40" height="40" as="geometry" />
        </mxCell>
        <mxCell id="1zgJs77Ob8flzv7CBeoi-70" value="Logo" style="text;html=1;align=center;verticalAlign=middle;whiteSpace=wrap;rounded=0;" vertex="1" parent="1">
          <mxGeometry x="249" y="145" width="60" height="30" as="geometry" />
        </mxCell>
        <mxCell id="1zgJs77Ob8flzv7CBeoi-76" value="List Item" style="text;strokeColor=none;fillColor=none;align=left;verticalAlign=middle;spacingLeft=4;spacingRight=4;overflow=hidden;points=[[0,0.5],[1,0.5]];portConstraint=eastwest;rotatable=0;whiteSpace=wrap;html=1;" vertex="1" parent="1">
          <mxGeometry x="232" y="190" width="80" height="30" as="geometry" />
        </mxCell>
        <mxCell id="1zgJs77Ob8flzv7CBeoi-77" value="List Item" style="text;strokeColor=none;fillColor=none;align=left;verticalAlign=middle;spacingLeft=4;spacingRight=4;overflow=hidden;points=[[0,0.5],[1,0.5]];portConstraint=eastwest;rotatable=0;whiteSpace=wrap;html=1;" vertex="1" parent="1">
          <mxGeometry x="232" y="220" width="80" height="30" as="geometry" />
        </mxCell>
        <mxCell id="1zgJs77Ob8flzv7CBeoi-78" value="List Item" style="text;strokeColor=none;fillColor=none;align=left;verticalAlign=middle;spacingLeft=4;spacingRight=4;overflow=hidden;points=[[0,0.5],[1,0.5]];portConstraint=eastwest;rotatable=0;whiteSpace=wrap;html=1;" vertex="1" parent="1">
          <mxGeometry x="232" y="250" width="80" height="30" as="geometry" />
        </mxCell>
        <mxCell id="1zgJs77Ob8flzv7CBeoi-79" value="List Item" style="text;strokeColor=none;fillColor=none;align=left;verticalAlign=middle;spacingLeft=4;spacingRight=4;overflow=hidden;points=[[0,0.5],[1,0.5]];portConstraint=eastwest;rotatable=0;whiteSpace=wrap;html=1;" vertex="1" parent="1">
          <mxGeometry x="232" y="280" width="80" height="30" as="geometry" />
        </mxCell>
        <mxCell id="1zgJs77Ob8flzv7CBeoi-80" value="List Item" style="text;strokeColor=none;fillColor=none;align=left;verticalAlign=middle;spacingLeft=4;spacingRight=4;overflow=hidden;points=[[0,0.5],[1,0.5]];portConstraint=eastwest;rotatable=0;whiteSpace=wrap;html=1;" vertex="1" parent="1">
          <mxGeometry x="232" y="310" width="80" height="30" as="geometry" />
        </mxCell>
        <mxCell id="1zgJs77Ob8flzv7CBeoi-82" value="List Item" style="text;strokeColor=none;fillColor=none;align=left;verticalAlign=middle;spacingLeft=4;spacingRight=4;overflow=hidden;points=[[0,0.5],[1,0.5]];portConstraint=eastwest;rotatable=0;whiteSpace=wrap;html=1;" vertex="1" parent="1">
          <mxGeometry x="232" y="337" width="80" height="30" as="geometry" />
        </mxCell>
        <mxCell id="1zgJs77Ob8flzv7CBeoi-83" value="List Item" style="text;strokeColor=none;fillColor=none;align=left;verticalAlign=middle;spacingLeft=4;spacingRight=4;overflow=hidden;points=[[0,0.5],[1,0.5]];portConstraint=eastwest;rotatable=0;whiteSpace=wrap;html=1;" vertex="1" parent="1">
          <mxGeometry x="232" y="367" width="80" height="30" as="geometry" />
        </mxCell>
        <mxCell id="1zgJs77Ob8flzv7CBeoi-84" value="List Item" style="text;strokeColor=none;fillColor=none;align=left;verticalAlign=middle;spacingLeft=4;spacingRight=4;overflow=hidden;points=[[0,0.5],[1,0.5]];portConstraint=eastwest;rotatable=0;whiteSpace=wrap;html=1;" vertex="1" parent="1">
          <mxGeometry x="232" y="397" width="80" height="30" as="geometry" />
        </mxCell>
        <mxCell id="1zgJs77Ob8flzv7CBeoi-85" value="List Item" style="text;strokeColor=none;fillColor=none;align=left;verticalAlign=middle;spacingLeft=4;spacingRight=4;overflow=hidden;points=[[0,0.5],[1,0.5]];portConstraint=eastwest;rotatable=0;whiteSpace=wrap;html=1;" vertex="1" parent="1">
          <mxGeometry x="232" y="427" width="80" height="30" as="geometry" />
        </mxCell>
        <mxCell id="1zgJs77Ob8flzv7CBeoi-86" value="List Item" style="text;strokeColor=none;fillColor=none;align=left;verticalAlign=middle;spacingLeft=4;spacingRight=4;overflow=hidden;points=[[0,0.5],[1,0.5]];portConstraint=eastwest;rotatable=0;whiteSpace=wrap;html=1;" vertex="1" parent="1">
          <mxGeometry x="232" y="457" width="80" height="30" as="geometry" />
        </mxCell>
        <mxCell id="1zgJs77Ob8flzv7CBeoi-87" value="List Item" style="text;strokeColor=none;fillColor=none;align=left;verticalAlign=middle;spacingLeft=4;spacingRight=4;overflow=hidden;points=[[0,0.5],[1,0.5]];portConstraint=eastwest;rotatable=0;whiteSpace=wrap;html=1;" vertex="1" parent="1">
          <mxGeometry x="232" y="487" width="80" height="30" as="geometry" />
        </mxCell>
        <mxCell id="1zgJs77Ob8flzv7CBeoi-88" value="List Item" style="text;strokeColor=none;fillColor=none;align=left;verticalAlign=middle;spacingLeft=4;spacingRight=4;overflow=hidden;points=[[0,0.5],[1,0.5]];portConstraint=eastwest;rotatable=0;whiteSpace=wrap;html=1;" vertex="1" parent="1">
          <mxGeometry x="232" y="517" width="80" height="30" as="geometry" />
        </mxCell>
        <mxCell id="1zgJs77Ob8flzv7CBeoi-89" value="List Item" style="text;strokeColor=none;fillColor=none;align=left;verticalAlign=middle;spacingLeft=4;spacingRight=4;overflow=hidden;points=[[0,0.5],[1,0.5]];portConstraint=eastwest;rotatable=0;whiteSpace=wrap;html=1;" vertex="1" parent="1">
          <mxGeometry x="232" y="547" width="80" height="30" as="geometry" />
        </mxCell>
        <mxCell id="1zgJs77Ob8flzv7CBeoi-91" value="" style="html=1;shadow=0;dashed=0;shape=mxgraph.bootstrap.radioButton2;labelPosition=right;verticalLabelPosition=middle;align=left;verticalAlign=middle;gradientColor=#DEDEDE;fillColor=#EDEDED;checked=0;spacing=5;checkedFill=#0085FC;checkedStroke=#ffffff;sketch=0;" vertex="1" parent="1">
          <mxGeometry x="202" y="195" width="20" height="20" as="geometry" />
        </mxCell>
        <mxCell id="1zgJs77Ob8flzv7CBeoi-92" value="" style="html=1;shadow=0;dashed=0;shape=mxgraph.bootstrap.radioButton2;labelPosition=right;verticalLabelPosition=middle;align=left;verticalAlign=middle;gradientColor=#DEDEDE;fillColor=#EDEDED;checked=0;spacing=5;checkedFill=#0085FC;checkedStroke=#ffffff;sketch=0;" vertex="1" parent="1">
          <mxGeometry x="202" y="225" width="20" height="20" as="geometry" />
        </mxCell>
        <mxCell id="1zgJs77Ob8flzv7CBeoi-95" value="" style="html=1;shadow=0;dashed=0;shape=mxgraph.bootstrap.radioButton2;labelPosition=right;verticalLabelPosition=middle;align=left;verticalAlign=middle;gradientColor=#DEDEDE;fillColor=#EDEDED;checked=0;spacing=5;checkedFill=#0085FC;checkedStroke=#ffffff;sketch=0;" vertex="1" parent="1">
          <mxGeometry x="202" y="255" width="20" height="20" as="geometry" />
        </mxCell>
        <mxCell id="1zgJs77Ob8flzv7CBeoi-96" value="" style="html=1;shadow=0;dashed=0;shape=mxgraph.bootstrap.radioButton2;labelPosition=right;verticalLabelPosition=middle;align=left;verticalAlign=middle;gradientColor=#DEDEDE;fillColor=#EDEDED;checked=0;spacing=5;checkedFill=#0085FC;checkedStroke=#ffffff;sketch=0;" vertex="1" parent="1">
          <mxGeometry x="202" y="285" width="20" height="20" as="geometry" />
        </mxCell>
        <mxCell id="1zgJs77Ob8flzv7CBeoi-97" value="" style="html=1;shadow=0;dashed=0;shape=mxgraph.bootstrap.radioButton2;labelPosition=right;verticalLabelPosition=middle;align=left;verticalAlign=middle;gradientColor=#DEDEDE;fillColor=#EDEDED;checked=0;spacing=5;checkedFill=#0085FC;checkedStroke=#ffffff;sketch=0;" vertex="1" parent="1">
          <mxGeometry x="202" y="313" width="20" height="20" as="geometry" />
        </mxCell>
        <mxCell id="1zgJs77Ob8flzv7CBeoi-98" value="" style="html=1;shadow=0;dashed=0;shape=mxgraph.bootstrap.radioButton2;labelPosition=right;verticalLabelPosition=middle;align=left;verticalAlign=middle;gradientColor=#DEDEDE;fillColor=#EDEDED;checked=0;spacing=5;checkedFill=#0085FC;checkedStroke=#ffffff;sketch=0;" vertex="1" parent="1">
          <mxGeometry x="202" y="343" width="20" height="20" as="geometry" />
        </mxCell>
        <mxCell id="1zgJs77Ob8flzv7CBeoi-99" value="" style="html=1;shadow=0;dashed=0;shape=mxgraph.bootstrap.radioButton2;labelPosition=right;verticalLabelPosition=middle;align=left;verticalAlign=middle;gradientColor=#DEDEDE;fillColor=#EDEDED;checked=0;spacing=5;checkedFill=#0085FC;checkedStroke=#ffffff;sketch=0;" vertex="1" parent="1">
          <mxGeometry x="202" y="373" width="20" height="20" as="geometry" />
        </mxCell>
        <mxCell id="1zgJs77Ob8flzv7CBeoi-100" value="" style="html=1;shadow=0;dashed=0;shape=mxgraph.bootstrap.radioButton2;labelPosition=right;verticalLabelPosition=middle;align=left;verticalAlign=middle;gradientColor=#DEDEDE;fillColor=#EDEDED;checked=0;spacing=5;checkedFill=#0085FC;checkedStroke=#ffffff;sketch=0;" vertex="1" parent="1">
          <mxGeometry x="202" y="403" width="20" height="20" as="geometry" />
        </mxCell>
        <mxCell id="1zgJs77Ob8flzv7CBeoi-101" value="" style="html=1;shadow=0;dashed=0;shape=mxgraph.bootstrap.radioButton2;labelPosition=right;verticalLabelPosition=middle;align=left;verticalAlign=middle;gradientColor=#DEDEDE;fillColor=#EDEDED;checked=0;spacing=5;checkedFill=#0085FC;checkedStroke=#ffffff;sketch=0;" vertex="1" parent="1">
          <mxGeometry x="202" y="430" width="20" height="20" as="geometry" />
        </mxCell>
        <mxCell id="1zgJs77Ob8flzv7CBeoi-102" value="" style="html=1;shadow=0;dashed=0;shape=mxgraph.bootstrap.radioButton2;labelPosition=right;verticalLabelPosition=middle;align=left;verticalAlign=middle;gradientColor=#DEDEDE;fillColor=#EDEDED;checked=0;spacing=5;checkedFill=#0085FC;checkedStroke=#ffffff;sketch=0;" vertex="1" parent="1">
          <mxGeometry x="202" y="460" width="20" height="20" as="geometry" />
        </mxCell>
        <mxCell id="1zgJs77Ob8flzv7CBeoi-103" value="" style="html=1;shadow=0;dashed=0;shape=mxgraph.bootstrap.radioButton2;labelPosition=right;verticalLabelPosition=middle;align=left;verticalAlign=middle;gradientColor=#DEDEDE;fillColor=#EDEDED;checked=0;spacing=5;checkedFill=#0085FC;checkedStroke=#ffffff;sketch=0;" vertex="1" parent="1">
          <mxGeometry x="202" y="490" width="20" height="20" as="geometry" />
        </mxCell>
        <mxCell id="1zgJs77Ob8flzv7CBeoi-104" value="" style="html=1;shadow=0;dashed=0;shape=mxgraph.bootstrap.radioButton2;labelPosition=right;verticalLabelPosition=middle;align=left;verticalAlign=middle;gradientColor=#DEDEDE;fillColor=#EDEDED;checked=0;spacing=5;checkedFill=#0085FC;checkedStroke=#ffffff;sketch=0;" vertex="1" parent="1">
          <mxGeometry x="202" y="520" width="20" height="20" as="geometry" />
        </mxCell>
        <mxCell id="1zgJs77Ob8flzv7CBeoi-105" value="" style="html=1;shadow=0;dashed=0;shape=mxgraph.bootstrap.radioButton2;labelPosition=right;verticalLabelPosition=middle;align=left;verticalAlign=middle;gradientColor=#DEDEDE;fillColor=#EDEDED;checked=0;spacing=5;checkedFill=#0085FC;checkedStroke=#ffffff;sketch=0;" vertex="1" parent="1">
          <mxGeometry x="202" y="552" width="20" height="20" as="geometry" />
        </mxCell>
      </root>
    </mxGraphModel>
  </diagram>
</mxfile>
